<?xml version="1.0" standalone="no"?><!DOCTYPE svg PUBLIC "-//W3C//DTD SVG 1.1//EN" "http://www.w3.org/Graphics/SVG/1.1/DTD/svg11.dtd"><svg t="1638510952211" class="icon" viewBox="0 0 1024 1024" version="1.1" xmlns="http://www.w3.org/2000/svg" p-id="7869" xmlns:xlink="http://www.w3.org/1999/xlink" width="128" height="128"><defs><style type="text/css"></style></defs><path d="M964.773 398.055H492.056c-32.67 0-59.125 28.062-59.125 62.635v500.675c0 34.676 26.455 62.635 59.125 62.635h472.717c32.669 0 59.227-28.16 59.227-62.635V460.592c-0.103-34.578-26.558-62.537-59.227-62.537m-722.855 0H60.53C27.056 398.055 0 426.117 0 460.592v500.676c0 34.67 27.159 62.635 60.53 62.635h181.388c33.372 0 60.53-28.165 60.53-62.635V460.592c-0.102-34.578-27.158-62.537-60.53-62.537M63.938 284.613h895.924c35.173 0 63.938-25.455 63.938-56.923V56.924C1023.8 25.455 995.235 0 959.862 0H63.938C28.662 0 0 25.455 0 56.924V227.69c0 31.468 28.56 56.923 63.938 56.923" fill="#666666" p-id="7870"></path></svg>